PathFileType	4	(X/Y/Z)	D:\TRACE\spot_10-12-23\spot_arm_body_motion_3_3-platform.trc
DataRate	CameraRate	NumFrames	NumMarkers	Units	OrigDataRate	OrigDataStartFrame	OrigNumFrames
100.00	100.00	      42	5	mm	100.00	2626	      7000
Frame#	Time	Left_Front			Right_Front			Left_Aft			Right_Aft			Post			
		X1	Y1	Z1	X2	Y2	Z2	X3	Y3	Z3	X4	Y4	Z4	X5	Y5	Z5	

2626	26.250	-780.35602	-9.67815	-645.24512	792.24420	-4.79460	-638.25745	-697.52045	15.95497	492.55081	719.79541	22.50620	578.65906	2.86074	720.33551	-980.47845	
2627	26.260	-780.55493	-9.82554	-645.27667	792.11316	-4.98744	-638.29810	-697.57965	16.03314	492.45425	719.62811	22.61899	578.59894	2.68026	719.99640	-980.85193	
2628	26.270	-780.59308	-10.04556	-645.36438	792.05420	-5.12497	-638.36554	-697.60828	16.16716	492.41678	719.62787	22.76662	578.57910	2.61016	719.65173	-981.25031	
2629	26.280	-780.69702	-10.10642	-645.46716	792.01752	-5.26475	-638.39758	-697.65735	16.31372	492.31293	719.65167	22.99469	578.53003	2.64503	719.29083	-981.47833	
2630	26.290	-780.70880	-10.16131	-645.44940	792.14014	-5.38914	-638.30536	-697.67987	16.44367	492.23175	719.68524	23.17424	578.47668	2.68061	719.17761	-981.82922	
2631	26.300	-780.73260	-10.36928	-645.50012	791.95227	-5.47495	-638.50049	-697.69220	16.50405	492.11807	719.62488	23.28271	578.49194	2.71781	718.89368	-982.13208	
2632	26.310	-780.63062	-10.74314	-645.56445	792.10156	-5.75515	-638.52948	-697.74188	16.66306	492.10657	719.58716	23.41187	578.43152	2.78917	718.64606	-982.34033	
2633	26.320	-780.56573	-10.98629	-645.54480	791.99353	-5.99580	-638.68463	-697.72833	16.77341	492.00790	719.54376	23.60079	578.35260	2.85634	718.40796	-982.44086	
2634	26.330	-780.57648	-11.17214	-645.62201	791.82428	-6.27869	-638.81586	-697.73822	16.89101	491.94733	719.54248	23.78668	578.30847	2.77862	718.15662	-982.68176	
2635	26.340	-780.42920	-11.42766	-645.69977	791.89514	-6.49229	-638.73657	-697.75537	17.07561	491.94244	719.58698	24.01728	578.20319	2.67422	717.71344	-983.01099	
2636	26.350	-780.40570	-11.65273	-645.75043	792.01007	-6.79642	-638.70880	-697.66174	17.20484	491.88928	719.65735	24.23392	578.10779	2.81202	717.17303	-983.17133	
2637	26.360	-780.46313	-11.88014	-645.79449	792.07269	-7.05517	-638.69592	-697.63196	17.36655	491.87531	719.58618	24.39143	578.07660	2.89533	716.77661	-983.59467	
2638	26.370	-780.51697	-12.17835	-645.82544	792.06482	-7.41613	-638.66901	-697.61487	17.49836	491.77719	719.58130	24.51152	578.03455	2.79528	716.56647	-983.81934	
2639	26.380	-780.50507	-12.55122	-645.85394	792.05841	-7.75168	-638.70129	-697.63019	17.69184	491.66785	719.54352	24.73595	577.95367	2.80757	716.33240	-984.14117	
2640	26.390	-780.49249	-12.72226	-645.97290	792.01605	-7.92477	-638.82831	-697.61902	17.99723	491.60181	719.54456	24.96121	577.88867	2.56355	716.01727	-984.50946	
2641	26.400	-780.39520	-12.90305	-646.05273	792.28058	-8.10330	-638.75262	-697.54486	18.22537	491.53827	719.64063	25.16203	577.79932	2.65967	715.56848	-984.76929	
2642	26.410	-780.17749	-13.23199	-646.07324	792.34082	-8.32386	-638.97302	-697.28473	18.31885	491.55716	719.78656	25.41853	577.70654	2.79098	714.90656	-985.20233	
2643	26.420	-779.98761	-13.63988	-646.09845	792.69458	-8.57678	-639.07721	-697.14142	18.42344	491.56223	719.96533	25.67990	577.58807	3.11086	714.41364	-985.69305	
2644	26.430	-779.86517	-13.82965	-646.17749	793.01849	-8.90601	-639.15753	-696.95587	18.47111	491.56335	720.15253	25.88639	577.50385	3.46530	714.07751	-986.23059	
2645	26.440	-779.72113	-14.04812	-646.20288	793.24762	-9.13638	-639.19519	-696.67938	18.69358	491.54480	720.35950	26.09837	577.39673	3.63309	713.83087	-986.57257	
2646	26.450	-779.64252	-14.34781	-646.25220	793.48859	-9.32634	-639.19812	-696.52026	19.01910	491.52322	720.62329	26.33456	577.37628	3.90471	713.45746	-987.03735	
2647	26.460	-779.33942	-14.62350	-646.28595	793.70453	-9.48586	-639.24475	-696.39087	19.33679	491.21082	720.88434	26.57631	577.42572	4.20722	712.99219	-987.45190	
2648	26.470	-779.04205	-14.86497	-646.36890	793.82770	-9.62389	-639.26306	-696.23834	19.48251	491.11154	721.15881	26.71520	577.43182	4.34213	712.71283	-987.73120	
2649	26.480	-778.80933	-15.08496	-646.35687	794.10675	-9.88098	-639.31708	-696.03912	19.64409	491.04858	721.34717	26.82924	577.41327	4.42296	712.26831	-987.86865	
2650	26.490	-778.44446	-15.34275	-646.44092	794.19904	-10.07664	-639.35846	-695.87488	19.71005	490.97824	721.53680	26.91169	577.36285	4.71367	711.93219	-988.12207	
2651	26.500	-778.16553	-15.56990	-646.53790	794.27216	-10.31579	-639.45972	-695.69366	19.81746	491.20230	721.79663	27.07886	577.17584	4.92149	711.64850	-988.33856	
2652	26.510	-777.96826	-15.72894	-646.53973	794.36047	-10.50278	-639.46729	-695.48206	20.03550	490.81906	722.09784	27.37573	577.02057	5.11089	711.18518	-988.61377	
2653	26.520	-777.69092	-16.06206	-646.55688	794.83466	-10.91389	-639.35248	-695.09076	20.28051	490.79504	722.41125	27.63479	576.88690	5.41751	710.80786	-988.84430	
2654	26.530	-777.50726	-16.31244	-646.57715	795.05157	-11.18247	-639.46362	-694.72675	20.37848	490.66095	722.57019	27.71218	576.81927	5.80177	710.56934	-989.04718	
2655	26.540	-777.37256	-16.38854	-646.64130	795.43530	-11.57275	-639.46747	-694.47729	20.49559	490.57977	722.72620	27.88209	576.81317	6.03123	710.28430	-989.14423	
2656	26.550	-777.26263	-16.43344	-646.66864	795.66968	-11.67180	-639.62842	-694.29779	20.63722	490.48828	722.93304	28.04806	576.81873	6.22241	709.94666	-989.18860	
2657	26.560	-777.02252	-16.60625	-646.75208	796.06085	-11.89679	-639.77881	-694.04321	20.71767	490.43274	723.16260	28.18301	576.79614	6.44333	709.75037	-989.46057	
2658	26.570	-776.51685	-16.92152	-646.87616	796.50488	-12.07443	-639.76605	-693.72156	20.84237	490.41882	723.63983	28.46956	576.77966	6.87185	709.32068	-989.95801	
2659	26.580	-776.09949	-17.13521	-646.90326	796.68018	-12.09101	-639.77234	-693.20752	20.98697	490.45117	724.09045	28.58487	576.75061	7.24759	708.93219	-990.49640	
2660	26.590	-775.64825	-17.39847	-646.95062	797.00519	-12.30990	-639.81219	-692.91138	21.09585	490.42047	724.44934	28.66404	576.70953	7.46190	708.73004	-990.72144	
2661	26.600	-775.74255	-17.29656	-646.82111	797.20581	-12.42029	-639.83612	-692.58466	21.19757	490.36090	724.78339	28.76157	576.62689	7.79804	708.50940	-991.04688	
2662	26.610	-775.32092	-17.47805	-646.80859	797.43774	-12.51303	-639.84888	-692.37128	21.23743	490.31464	725.08752	28.84392	576.56641	8.12114	708.34973	-991.30981	
2663	26.620	-774.75293	-17.68275	-646.83539	797.97198	-12.64909	-639.73193	-692.13403	21.25959	490.30078	725.44281	28.99799	576.50671	8.52490	708.28522	-991.57715	
2664	26.630	-774.37811	-17.81623	-646.86511	798.19763	-12.72698	-639.89001	-691.69366	21.36346	490.29462	725.68854	29.12274	576.51404	8.92118	708.21704	-991.79358	
2665	26.640	-773.96753	-17.93111	-647.02832	798.81036	-12.84312	-639.90527	-691.13831	21.41817	490.36719	726.06323	29.13227	576.49316	9.24581	708.10583	-992.00653	
2666	26.650	-773.66199	-18.14296	-647.00818	799.06903	-12.84771	-640.01050	-690.78741	21.50037	490.38773	726.43176	29.17916	576.50165	9.48484	707.98267	-992.05750	
2667	26.660	-773.22772	-18.30981	-647.04541	799.47278	-12.87222	-639.97595	-690.45343	21.56491	490.30734	726.73810	29.21726	576.48865	9.78901	707.81305	-992.03693	
